<?xml version="1.0" encoding="utf-8"?>
<!-- Generator: Adobe Illustrator 19.1.0, SVG Export Plug-In . SVG Version: 6.00 Build 0)  -->
<svg version="1.1" id="Calque_1" xmlns="http://www.w3.org/2000/svg" xmlns:xlink="http://www.w3.org/1999/xlink" x="0px" y="0px"
	 viewBox="0 0 177 233" style="enable-background:new 0 0 177 233;" xml:space="preserve">
<style type="text/css">
	.st0{clip-path:url(#SVGID_2_);}
	.st1{fill:#FFFFFF;}
</style>
<g>
	<g>
		<defs>
			<rect id="SVGID_1_" x="0" width="176.7" height="233"/>
		</defs>
		<clipPath id="SVGID_2_">
			<use xlink:href="#SVGID_1_"  style="overflow:visible;"/>
		</clipPath>
		<g class="st0">
			<path class="st1" d="M175.7,1v230.8H1V1H175.7 M176.7,0H0v232.8h176.7V0L176.7,0z"/>
		</g>
	</g>
	<g>
		<path class="st1" d="M130.4,65.8c0.6-6,8.9-5.3,8.9-5.3l-3.1-3.9c0,0-3.8-0.5-5.4,3.8l-0.1,0.2l-0.1,0.1l-0.1-0.1l0.1-0.2
			c1-4.2,3.3-7.4,3.3-7.4l-4.2-5.6l-4.2,5.6c0,0,2.2,3.2,3.3,7.4l0.1,0.2l-0.1,0.1l-0.1-0.1l-0.1-0.2c-1.7-4.3-5.4-3.8-5.4-3.8
			l-3.1,3.9c0,0,8.3-0.8,8.9,5.3H130.4z M130.4,65.8"/>
		<path class="st1" d="M100.3,62.4C99,62.4,99,60.6,99,59c0-1.7,0-3.2,1.2-3.2c1.1,0,1.2,1.5,1.2,3.4
			C101.4,61.2,101.3,62.4,100.3,62.4 M101.5,63v1.3h2.7V49.4h-2.8v5.7l0-0.1c-0.4-0.9-1.3-1.4-2.3-1.4c-2.3,0-2.8,2.2-2.8,5.5
			c0,3.7,0.9,5.3,3,5.3C100.7,64.5,101.3,63.5,101.5,63L101.5,63z M101.5,63"/>
		<path class="st1" d="M62.2,54l-1.2,7.7h-0.2L59.7,54h-2.9l2.4,10.2h3.4L65,54H62.2z M62.2,54"/>
		<rect x="67" y="54" class="st1" width="2.8" height="10.2"/>
		<rect x="72.6" y="49.4" class="st1" width="2.8" height="14.8"/>
		<rect x="78.2" y="49.4" class="st1" width="2.8" height="14.8"/>
		<rect x="67" y="49.4" class="st1" width="2.8" height="2.7"/>
		<path class="st1" d="M88.2,57.9h-2.3v-0.1c0-1.2,0.1-2.4,1.2-2.4c0.9,0,1.1,0.9,1.1,2.4V57.9z M87,53.7c-2.7,0-3.9,1.5-3.9,5
			c0,3.2,0.3,5.8,3.9,5.8c2.4,0,3.7-1.2,3.7-3.6h-2.5c-0.1,1.2-0.3,1.9-1.2,1.9c-1,0-1.2-1-1.2-2.5v-0.7h5
			C90.8,56,90.5,53.7,87,53.7"/>
		<path class="st1" d="M111.4,57.9H109v-0.1c0-1.2,0.1-2.4,1.2-2.4c0.9,0,1.1,0.9,1.1,2.4V57.9z M110.2,53.7c-2.7,0-3.9,1.5-3.9,5
			c0,3.2,0.3,5.8,3.9,5.8c2.4,0,3.7-1.2,3.7-3.6h-2.5c-0.1,1.2-0.3,1.9-1.2,1.9c-1,0-1.2-1-1.2-2.5v-0.7h5
			C114,56,113.7,53.7,110.2,53.7"/>
		<rect x="30.8" y="70.4" class="st1" width="12.2" height="108.6"/>
		<path class="st1" d="M79.4,179h12.2l0-90.1H79.4L79.4,179z M79.4,179"/>
		<rect x="103.8" y="76.2" class="st1" width="12.2" height="79.7"/>
		<rect x="55.1" y="100.5" class="st1" width="12.2" height="61.1"/>
		<rect x="55.1" y="76.2" class="st1" width="12.2" height="12.2"/>
		<path class="st1" d="M148,105.6V95.1h-20v72.3h20V157H140v-20.5h8.1v-10.5H140v-20.5H148z M148,105.6"/>
	</g>
</g>
</svg>
